<svg width="18" height="24" viewBox="0 0 18 24" fill="none" xmlns="http://www.w3.org/2000/svg">
<path fill-rule="evenodd" clip-rule="evenodd" d="M5.16006 0H12.8399C15.2247 0 17.16 1.93525 17.16 4.32003C17.16 5.99123 16.2096 7.44161 14.8202 8.15996C16.2096 8.87835 17.16 10.3288 17.16 12C17.16 14.3848 15.2247 16.32 12.8399 16.32C11.4834 16.32 10.2723 15.6938 9.48012 14.7149V19.68C9.48012 22.0648 7.54485 24 5.16006 24C2.77527 24 0.84 22.0648 0.84 19.68C0.84 18.0088 1.79039 16.5583 3.17985 15.84C1.79039 15.1216 0.84 13.6712 0.84 12C0.84 10.3288 1.79038 8.87835 3.17983 8.15996C1.79038 7.44161 0.84 5.99123 0.84 4.32003C0.84 1.93525 2.77527 0 5.16006 0ZM1.8 4.32003C1.8 2.46545 3.30546 0.96 5.16006 0.96H8.51988V7.67994H5.16006L5.14964 7.67995C3.29981 7.67433 1.8 6.17112 1.8 4.32003ZM8.52012 11.9543C8.51996 11.9695 8.51988 11.9847 8.51988 12C8.51988 12.0152 8.51996 12.0304 8.52012 12.0457V15.3599H5.16004C3.30546 15.36 1.8 13.8546 1.8 12C1.8 10.1488 3.29987 8.64553 5.14973 8.63996L5.16006 8.63997H8.51988L8.52012 11.9543ZM9.48012 12.0402V11.9597C9.50166 10.1282 10.9913 8.64734 12.8262 8.63997H12.8399C12.8434 8.63997 12.8468 8.63996 12.8503 8.63996C14.7001 8.64553 16.2 10.1488 16.2 12C16.2 13.8546 14.6945 15.36 12.8399 15.36C10.9988 15.36 9.50171 13.8763 9.48012 12.0402ZM10.1253 8.63997C9.88824 8.83174 9.67191 9.04806 9.48012 9.28506V8.63997H10.1253ZM12.8504 7.67995C12.8469 7.67994 12.8434 7.67994 12.8399 7.67994C12.8347 7.67994 12.8294 7.67995 12.8242 7.67997H9.48012V0.96H12.8399C14.6945 0.96 16.2 2.46545 16.2 4.32003C16.2 6.17112 14.7002 7.67433 12.8504 7.67995ZM5.16006 16.3199C3.30546 16.3199 1.8 17.8254 1.8 19.68C1.8 21.5345 3.30546 23.04 5.16006 23.04C7.01466 23.04 8.52012 21.5345 8.52012 19.68V16.3199H5.16006Z" fill="#8C8C8C"/>
</svg>
