<svg width="24" height="18" viewBox="0 0 24 18" fill="none" xmlns="http://www.w3.org/2000/svg">
<path fill-rule="evenodd" clip-rule="evenodd" d="M1.75 0C0.783502 0 0 0.783502 0 1.75V15.75C0 16.7165 0.783502 17.5 1.75 17.5H22.25C23.2165 17.5 24 16.7165 24 15.75V1.75C24 0.783502 23.2165 0 22.25 0H1.75ZM1.5 1.75C1.5 1.61193 1.61193 1.5 1.75 1.5H22.25C22.3881 1.5 22.5 1.61193 22.5 1.75V2.60157L12.1399 9.60161C12.0554 9.65875 11.9446 9.65875 11.86 9.60161L1.5 2.6016V1.75ZM1.5 4.41191V15.75C1.5 15.8881 1.61193 16 1.75 16H22.25C22.3881 16 22.5 15.8881 22.5 15.75V4.41187L12.9797 10.8445C12.3878 11.2445 11.6122 11.2445 11.0202 10.8445L1.5 4.41191Z" fill="#8C8C8C"/>
</svg>
