<svg width="30" height="30" viewBox="0 0 30 30" fill="none" xmlns="http://www.w3.org/2000/svg">
<path fill-rule="evenodd" clip-rule="evenodd" d="M10.921 23.5376C11.4388 23.5376 11.8585 23.9574 11.8585 24.4751C11.8585 24.6916 11.9133 24.9154 12.0321 25.1361C12.1517 25.3585 12.3367 25.5781 12.5912 25.7743C12.846 25.9704 13.1604 26.1349 13.5205 26.2498C13.8805 26.3646 14.2717 26.4253 14.6705 26.4253C15.0692 26.4253 15.4605 26.3646 15.8204 26.2498C16.1806 26.1349 16.495 25.9704 16.7497 25.7743C17.0042 25.5781 17.1892 25.3585 17.3089 25.1361C17.4276 24.9154 17.4825 24.6916 17.4825 24.4751C17.4825 23.9574 17.9022 23.5376 18.42 23.5376C18.9377 23.5376 19.3575 23.9574 19.3575 24.4751C19.3575 25.017 19.2184 25.5443 18.9602 26.0243C18.703 26.5025 18.3356 26.9195 17.8937 27.2598C17.4522 27.5999 16.9399 27.8608 16.3902 28.0361C15.8404 28.2115 15.2565 28.3003 14.6705 28.3003C14.0845 28.3003 13.5006 28.2115 12.9507 28.0361C12.4011 27.8608 11.8888 27.5999 11.4472 27.2598C11.0054 26.9195 10.638 26.5025 10.3808 26.0243C10.1226 25.5443 9.98352 25.017 9.98352 24.4751C9.98352 23.9574 10.4032 23.5376 10.921 23.5376Z" fill="#4F4F4F"/>
<path fill-rule="evenodd" clip-rule="evenodd" d="M10.1908 3.13331C12.5693 1.94965 15.2922 1.72961 17.8027 2.48111C18.2987 2.6296 18.5804 3.15207 18.4319 3.64808C18.2834 4.14411 17.7609 4.42583 17.2649 4.27735C15.2073 3.66141 12.9756 3.84183 11.0262 4.81193C8.85601 5.89188 7.48406 8.10706 7.48406 10.5311V12.1827C7.48406 13.9624 7.0406 15.714 6.19375 17.2792L5.91075 17.8024C4.77468 19.9022 6.01673 22.4996 8.36445 22.9335C12.5331 23.704 16.8077 23.704 20.9763 22.9335L21.1766 22.8965C23.5239 22.4626 24.8317 19.9315 23.8274 17.7659L23.4967 17.0525C23.0112 16.0055 22.6956 14.8909 22.5591 13.7504C22.4976 13.2362 22.8644 12.7696 23.3786 12.7081C23.8927 12.6466 24.3593 13.0135 24.4208 13.5276C24.5339 14.4726 24.7954 15.3962 25.1977 16.2636L25.5284 16.9771C27.0481 20.2537 25.0691 24.0839 21.5174 24.7402L21.3172 24.7772C16.9232 25.5895 12.4176 25.5895 8.02365 24.7772C4.42411 24.112 2.5198 20.1296 4.26163 16.9101L4.54464 16.387C5.24323 15.0957 5.60906 13.6507 5.60906 12.1827V10.5311C5.60906 7.39557 7.3837 4.53022 10.1908 3.13331Z" fill="#4F4F4F"/>
<path fill-rule="evenodd" clip-rule="evenodd" d="M22.3252 5.35889C21.1171 5.35889 20.1377 6.33826 20.1377 7.54639C20.1377 8.75451 21.1171 9.73389 22.3252 9.73389C23.5333 9.73389 24.5127 8.75451 24.5127 7.54639C24.5127 6.33826 23.5333 5.35889 22.3252 5.35889ZM18.2627 7.54639C18.2627 5.30272 20.0816 3.48389 22.3252 3.48389C24.5689 3.48389 26.3877 5.30272 26.3877 7.54639C26.3877 9.79004 24.5689 11.6089 22.3252 11.6089C20.0816 11.6089 18.2627 9.79004 18.2627 7.54639Z" fill="#4F4F4F"/>
</svg>
