<svg width="24" height="24" viewBox="0 0 24 24" fill="none" xmlns="http://www.w3.org/2000/svg">
<path d="M20.625 8.12705C20.2583 8.12705 19.9167 8.05871 19.6 7.92205C19.2833 7.78538 19.006 7.59771 18.768 7.35905C18.5293 7.12105 18.3417 6.84371 18.205 6.52705C18.0683 6.21105 18 5.86938 18 5.50205C18 5.14205 18.0683 4.80205 18.205 4.48205C18.3417 4.16205 18.5293 3.88305 18.768 3.64505C19.006 3.40638 19.2833 3.21871 19.6 3.08205C19.916 2.94538 20.2577 2.87705 20.625 2.87705C20.985 2.87705 21.325 2.94538 21.645 3.08205C21.965 3.21871 22.244 3.40638 22.482 3.64505C22.7207 3.88305 22.9083 4.16205 23.045 4.48205C23.1817 4.80205 23.25 5.14205 23.25 5.50205C23.25 5.86871 23.1817 6.21038 23.045 6.52705C22.9083 6.84371 22.7207 7.12105 22.482 7.35905C22.244 7.59771 21.965 7.78538 21.645 7.92205C21.325 8.05871 20.985 8.12705 20.625 8.12705ZM20.625 4.37705C20.3123 4.37705 20.0467 4.48638 19.828 4.70505C19.6093 4.92371 19.5 5.18938 19.5 5.50205C19.5 5.81471 19.6093 6.08038 19.828 6.29905C20.0467 6.51771 20.3123 6.62705 20.625 6.62705C20.9377 6.62705 21.2033 6.51771 21.422 6.29905C21.6407 6.08038 21.75 5.81471 21.75 5.50205C21.75 5.18938 21.6407 4.92371 21.422 4.70505C21.2033 4.48638 20.9377 4.37705 20.625 4.37705ZM24 10.002V15.58C24 16.096 23.9023 16.5827 23.707 17.04C23.5117 17.4967 23.244 17.8947 22.904 18.234C22.564 18.574 22.1657 18.8417 21.709 19.037C21.2517 19.2324 20.7653 19.33 20.25 19.33C19.9533 19.33 19.6507 19.295 19.342 19.225C19.0333 19.1544 18.75 19.0447 18.492 18.896C18.2967 19.5294 18.0117 20.1057 17.637 20.625C17.2617 21.145 16.822 21.5904 16.318 21.961C15.814 22.3324 15.2573 22.6194 14.648 22.822C14.0387 23.0254 13.406 23.127 12.75 23.127C11.9847 23.127 11.264 22.9944 10.588 22.729C9.912 22.463 9.31033 22.0957 8.783 21.627C8.25633 21.1584 7.819 20.6037 7.471 19.963C7.123 19.3224 6.89833 18.627 6.797 17.877H0.997C0.723 17.877 0.488333 17.7794 0.293 17.584C0.0976667 17.3887 0 17.1544 0 16.881V6.87305C0 6.59971 0.0976667 6.36538 0.293 6.17005C0.488333 5.97471 0.722667 5.87705 0.996 5.87705H9.586C9.35933 5.40038 9.246 4.90038 9.246 4.37705C9.246 3.89238 9.33767 3.43738 9.521 3.01205C9.705 2.58605 9.955 2.21471 10.271 1.89805C10.5877 1.58205 10.959 1.33205 11.385 1.14805C11.8103 0.964714 12.2653 0.873047 12.75 0.873047C13.2347 0.873047 13.6897 0.964714 14.115 1.14805C14.541 1.33205 14.9123 1.58205 15.229 1.89805C15.545 2.21471 15.795 2.58605 15.979 3.01205C16.1623 3.43738 16.254 3.89238 16.254 4.37705C16.254 4.86171 16.1623 5.31671 15.979 5.74205C15.795 6.16805 15.545 6.53905 15.229 6.85505C14.9123 7.17171 14.541 7.42171 14.115 7.60505C13.6897 7.78905 13.2347 7.88105 12.75 7.88105C12.6247 7.88105 12.4997 7.87305 12.375 7.85705C12.2497 7.84171 12.1247 7.82238 12 7.79905V8.87705H22.875C23.1877 8.87705 23.4533 8.98638 23.672 9.20505C23.8907 9.42371 24 9.68938 24 10.002ZM12.75 2.37305C12.4767 2.37305 12.2167 2.42571 11.97 2.53105C11.7247 2.63638 11.512 2.78105 11.332 2.96505C11.152 3.14838 11.0093 3.36138 10.904 3.60405C10.7987 3.84605 10.746 4.10371 10.746 4.37705C10.746 4.65038 10.7987 4.91038 10.904 5.15705C11.01 5.40238 11.1527 5.61505 11.332 5.79505C11.512 5.97505 11.725 6.11771 11.971 6.22305C12.217 6.32838 12.4767 6.38105 12.75 6.38105C13.0233 6.38105 13.281 6.32838 13.523 6.22305C13.7657 6.11705 13.979 5.97438 14.163 5.79505C14.3457 5.61505 14.49 5.40205 14.596 5.15605C14.7013 4.91005 14.754 4.65038 14.754 4.37705C14.754 4.10371 14.7013 3.84605 14.596 3.60405C14.49 3.36138 14.3453 3.14805 14.162 2.96405C13.9787 2.78071 13.7657 2.63638 13.523 2.53105C13.281 2.42571 13.0233 2.37305 12.75 2.37305ZM6.937 9.81405H9.187V7.94005H2.814V9.81505H5.064V15.815H6.939L6.937 9.81405ZM17.25 17.127V10.377H12V16.881C12 17.1544 11.9023 17.3887 11.707 17.584C11.5117 17.7794 11.2773 17.877 11.004 17.877H8.309C8.41033 18.4164 8.59567 18.9164 8.865 19.377C9.135 19.8377 9.46333 20.2344 9.85 20.567C10.2367 20.8984 10.676 21.158 11.168 21.346C11.66 21.5334 12.1873 21.627 12.75 21.627C13.3673 21.627 13.9493 21.5097 14.496 21.275C15.0427 21.041 15.5213 20.719 15.932 20.309C16.342 19.8984 16.664 19.4217 16.898 18.879C17.1327 18.3357 17.25 17.7517 17.25 17.127ZM22.5 15.58V10.377H18.75V17.232C18.9533 17.4354 19.1837 17.586 19.441 17.684C19.699 17.7814 19.9687 17.83 20.25 17.83C20.5627 17.83 20.8557 17.7714 21.129 17.654C21.4023 17.5374 21.6407 17.3774 21.844 17.174C22.0467 16.9707 22.2067 16.7324 22.324 16.459C22.4413 16.1857 22.5 15.8927 22.5 15.58Z" fill="#8C8C8C" stroke="#8C8C8C" stroke-width="0.00024"/>
</svg>
